<svg width="18" height="26" viewBox="0 0 18 26" fill="none" xmlns="http://www.w3.org/2000/svg">
<g clip-path="url(#clip0)">
<path d="M4.91216 23.0718C4.91267 23.3912 5.00778 23.704 5.18625 23.9701L6.06017 25.2747C6.20946 25.4977 6.41195 25.6806 6.64962 25.8071C6.8873 25.9336 7.15278 25.9998 7.42244 25.9998H10.5781C10.8477 25.9998 11.1132 25.9336 11.3509 25.8071C11.5886 25.6806 11.7911 25.4977 11.9403 25.2747L12.8143 23.9701C12.9927 23.704 13.088 23.3915 13.0884 23.0718L13.0904 21.1243H4.9096L4.91216 23.0718ZM0 8.93681C0 11.19 0.841193 13.2456 2.2275 14.8163C3.07227 15.7735 4.39364 17.7733 4.89733 19.4602C4.89937 19.4734 4.90091 19.4866 4.90295 19.4998H13.097C13.0991 19.4866 13.1006 19.4739 13.1027 19.4602C13.6064 17.7733 14.9277 15.7735 15.7725 14.8163C17.1588 13.2456 18 11.19 18 8.93681C18 3.99123 13.9556 -0.0159235 8.97188 -0.000689127C3.75545 0.0150531 0 4.21263 0 8.93681ZM9 4.87431C6.74437 4.87431 4.90909 6.69685 4.90909 8.93681C4.90909 9.38572 4.54295 9.74931 4.09091 9.74931C3.63886 9.74931 3.27273 9.38572 3.27273 8.93681C3.27273 5.80056 5.84182 3.24931 9 3.24931C9.45205 3.24931 9.81818 3.6129 9.81818 4.06181C9.81818 4.51072 9.45205 4.87431 9 4.87431Z" fill="white"/>
</g>
<defs>
<clipPath id="clip0">
<rect width="18" height="26" fill="white"/>
</clipPath>
</defs>
</svg>
