<svg width="20" height="20" viewBox="0 0 20 20" fill="none" xmlns="http://www.w3.org/2000/svg">
<path d="M10 0C4.47688 0 0 4.47688 0 10C0 15.5231 4.47688 20 10 20C15.5231 20 20 15.5231 20 10C20 4.47688 15.5231 0 10 0ZM10 19.375C4.83063 19.375 0.625 15.1694 0.625 10C0.625 4.83063 4.83063 0.625 10 0.625C15.1694 0.625 19.375 4.83063 19.375 10C19.375 15.1694 15.1694 19.375 10 19.375Z" fill="#FA5934"/>
<path d="M9.95941 15.3125C8.55878 15.3125 7.41316 14.8969 6.54628 14.075C5.48628 13.0694 5.10878 11.6775 5.10878 10.71C5.10878 9.03441 5.88691 8.14253 5.92003 8.10566L6.29378 7.68691L6.45253 8.22566C6.64253 8.86878 6.93066 9.36816 7.20066 9.73003C7.17066 9.48191 7.15503 9.21378 7.17128 8.95316C7.24566 7.76503 7.82441 6.97253 8.41128 6.26191C9.20566 5.29878 9.59253 4.47753 9.59253 3.75003V2.89441L11.4019 5.04066C12.2619 6.17066 12.5688 7.39441 12.6763 8.19378L13.9944 6.43253L14.1307 7.12066C14.1338 7.13441 14.41 8.52378 14.73 9.68441C15.0019 10.6725 15.0038 12.2675 14.1132 13.5119C13.3357 14.5975 12.0688 15.2 10.3494 15.3019C10.2169 15.3088 10.0869 15.3125 9.95941 15.3125ZM6.08128 9.03191C5.91128 9.40003 5.73378 9.96378 5.73378 10.71C5.73378 11.5475 6.06003 12.7525 6.97691 13.6213C7.79316 14.3963 8.91816 14.7488 10.3144 14.6782C11.835 14.5875 12.9432 14.0725 13.605 13.1482C14.3682 12.0825 14.3632 10.7057 14.1275 9.85066C13.9438 9.18316 13.7744 8.44316 13.6613 7.92253L12.0675 10.0513L12.1069 9.04691C12.1082 9.02753 12.1694 7.08066 10.915 5.43191L10.1219 4.49253C9.95128 5.16003 9.54941 5.86503 8.89378 6.66066C8.35066 7.31816 7.85816 7.99066 7.79566 8.99253C7.74878 9.74691 8.02441 10.62 8.02691 10.6282L8.31066 11.5144L7.55003 10.9794C7.50691 10.9488 6.64128 10.3275 6.08128 9.03191Z" fill="#FA5934"/>
</svg>
