<svg width="40" height="40" viewBox="0 0 40 40" fill="none" xmlns="http://www.w3.org/2000/svg">
<circle cx="20" cy="20" r="20" fill="#E31E24"/>
<g clip-path="url(#clip0)">
<path d="M23.0051 16.3873L21.7363 15.1198L15.3926 21.4623C15.1427 21.7122 14.9446 22.0089 14.8094 22.3354C14.6742 22.6619 14.6047 23.0118 14.6047 23.3652C14.6048 23.7186 14.6744 24.0685 14.8097 24.395C14.945 24.7214 15.1433 25.0181 15.3932 25.2679C15.6431 25.5177 15.9398 25.7159 16.2663 25.8511C16.5928 25.9863 16.9427 26.0558 17.2961 26.0558C17.6495 26.0557 17.9994 25.986 18.3259 25.8508C18.6524 25.7155 18.949 25.5172 19.1988 25.2673L26.8113 17.656C27.6524 16.8148 28.1248 15.6739 28.1247 14.4843C28.1246 13.2948 27.6519 12.154 26.8107 11.3129C25.9695 10.4718 24.8286 9.99939 23.639 9.99951C22.4494 9.99963 21.3086 10.4723 20.4676 11.3135L12.4751 19.3048L12.4576 19.321C10.0138 21.7648 10.0138 25.7248 12.4576 28.1673C14.9013 30.6098 18.8613 30.6098 21.3051 28.1673L21.3213 28.1498L21.3226 28.151L26.7788 22.696L25.5101 21.4285L20.0538 26.8823L20.0376 26.8985C18.2976 28.6385 15.4676 28.6385 13.7276 26.8985C13.3125 26.4826 12.9837 25.9888 12.7598 25.4455C12.536 24.9022 12.4216 24.32 12.4233 23.7324C12.4249 23.1448 12.5425 22.5633 12.7693 22.0212C12.9961 21.4791 13.3277 20.9872 13.7451 20.5735L13.7438 20.5723L21.7376 12.581C22.7863 11.531 24.4938 11.531 25.5438 12.581C26.5938 13.631 26.5926 15.3373 25.5438 16.386L17.9313 23.9973C17.761 24.154 17.5366 24.2388 17.3052 24.234C17.0738 24.2293 16.8532 24.1353 16.6894 23.9717C16.5256 23.8081 16.4314 23.5875 16.4264 23.3561C16.4214 23.1247 16.506 22.9003 16.6626 22.7298L23.0063 16.386L23.0051 16.3873Z" fill="white"/>
</g>
<defs>
<clipPath id="clip0">
<rect x="10" y="10" width="20" height="20" fill="white"/>
</clipPath>
</defs>
</svg>
