<svg width="20" height="20" viewBox="0 0 20 20" fill="none" xmlns="http://www.w3.org/2000/svg">
<g clip-path="url(#clip0)">
<path d="M13.0051 6.38728L11.7363 5.11978L5.39257 11.4623C5.14273 11.7122 4.94456 12.0089 4.80938 12.3354C4.6742 12.6619 4.60465 13.0118 4.60471 13.3652C4.60477 13.7186 4.67443 14.0685 4.80972 14.395C4.94501 14.7214 5.14327 15.0181 5.39319 15.2679C5.64311 15.5177 5.9398 15.7159 6.26631 15.8511C6.59281 15.9863 6.94275 16.0558 7.29613 16.0558C7.64952 16.0557 7.99943 15.986 8.32589 15.8508C8.65236 15.7155 8.94898 15.5172 9.19882 15.2673L16.8113 7.65603C17.6524 6.81479 18.1248 5.6739 18.1247 4.48434C18.1246 3.29477 17.6519 2.15397 16.8107 1.3129C15.9695 0.471836 14.8286 -0.00060547 13.639 -0.000488259C12.4494 -0.000371049 11.3086 0.472295 10.4676 1.31353L2.47507 9.30478L2.45757 9.32103C0.0138185 11.7648 0.0138185 15.7248 2.45757 18.1673C4.90132 20.6098 8.86132 20.6098 11.3051 18.1673L11.3213 18.1498L11.3226 18.151L16.7788 12.696L15.5101 11.4285L10.0538 16.8823L10.0376 16.8985C8.29757 18.6385 5.46757 18.6385 3.72757 16.8985C3.31252 16.4826 2.98366 15.9888 2.75984 15.4455C2.53602 14.9022 2.42164 14.32 2.42327 13.7324C2.42489 13.1448 2.54249 12.5633 2.76931 12.0212C2.99613 11.4791 3.32772 10.9872 3.74507 10.5735L3.74382 10.5723L11.7376 2.58103C12.7863 1.53103 14.4938 1.53103 15.5438 2.58103C16.5938 3.63103 16.5926 5.33728 15.5438 6.38603L7.93132 13.9973C7.76095 14.154 7.53664 14.2388 7.30521 14.234C7.07379 14.2293 6.85316 14.1353 6.6894 13.9717C6.52565 13.8081 6.43143 13.5875 6.42643 13.3561C6.42143 13.1247 6.50603 12.9003 6.66257 12.7298L13.0063 6.38603L13.0051 6.38728Z" fill="white"/>
</g>
<defs>
<clipPath id="clip0">
<rect width="20" height="20" fill="white"/>
</clipPath>
</defs>
</svg>
