<svg width="108" height="40" viewBox="0 0 108 40" fill="none" xmlns="http://www.w3.org/2000/svg">
<path fill-rule="evenodd" clip-rule="evenodd" d="M59.8703 35.2966L59.1754 36.9338H58.2721L58.9809 35.2966H58.6334V34.5057H59.3283L60.4402 31.9945L60.2178 31.4534L60.9405 31.1342L62.3859 34.5057H63.0946V35.2966H62.7333L63.4282 36.9338H62.5248L61.8299 35.2966H59.8703ZM94.7679 35.3798H93.934V34.589H94.6845L92.9473 31.5088H93.9062L95.1848 33.812L96.4773 31.5088H97.4363L95.6852 34.589H96.4356V35.3798H95.5879V37.017H94.7679V35.3798ZM84.1916 33.2848L82.5378 37.128L80.1195 31.5088H81.0507L82.5656 35.0468L84.1916 31.2452L85.8316 35.0468L87.3464 31.5088H88.2776L85.8594 37.128L84.1916 33.2848ZM65.3739 33.5761L67.3474 31.5088H68.4453L65.9715 34.0756L68.5009 37.017H67.403L65.3739 34.6445V37.017H64.5539V31.5088H65.3739V33.5761ZM56.7016 32.2164V36.9338H55.8678V32.2164H54.5891V31.4256H57.9802V32.2164H56.7016ZM70.5022 36.2262H72.4618V37.017H69.6683V34.6583H68.9873V33.8675H69.6683V31.5088H72.4618V32.2997H70.5022V33.8675H72.4618V34.6583H70.5022V36.2262ZM89.5562 35.3798L88.8613 37.017H87.944L88.6667 35.3798H88.3054V34.589H89.0142L90.126 32.0777L89.8897 31.5227L90.6263 31.2175L92.0717 34.589H92.7666V35.3798H92.4053L93.114 37.017H92.1968L91.5158 35.3798H89.5562ZM90.5429 33.0628L89.8897 34.589H91.1822L90.5429 33.0628ZM76.8535 35.3798L76.1725 37.017H75.2553L75.9641 35.3798H75.6166V34.589H76.3254L77.4233 32.0777L77.201 31.5227L77.9237 31.2175L79.3829 34.589H80.0778V35.3798H79.7165L80.4114 37.017H79.508L78.827 35.3798H76.8535ZM77.8403 33.0628L77.201 34.589H78.4935L77.8403 33.0628ZM60.8571 32.9795L60.2178 34.5057H61.4964L60.8571 32.9795Z" fill="#E31E24"/>
<path fill-rule="evenodd" clip-rule="evenodd" d="M48.1 21.9216C48.2529 21.9216 48.9755 21.9355 49.1284 21.9355C51.2826 21.991 53.1171 22.6708 53.0337 25.2237C53.0059 26.2643 52.0053 26.8609 50.7406 27.069C49.9484 27.2078 48.7115 27.1939 47.9193 27.0413C46.7241 26.8054 45.8068 26.2088 45.8068 25.196V24.1693C45.4733 24.2803 45.1397 24.4051 44.834 24.5855L43.736 22.7957C44.3754 22.4488 45.0841 22.1852 45.8068 22.0326V21.0475C45.0841 20.8949 44.3754 20.6452 43.736 20.2844L44.834 18.5085C45.1397 18.675 45.4733 18.8137 45.8068 18.9109V18.1061C45.8068 17.0933 46.7241 16.4828 47.9193 16.247C48.7115 16.0943 49.9484 16.0943 50.7406 16.2331C52.0053 16.4412 53.0059 17.0378 53.0337 18.0784C53.1171 20.6313 51.2826 21.2973 49.1284 21.3528C48.9755 21.3666 48.2529 21.3666 48.1 21.3805V21.9216ZM76.396 11.9736C76.4516 11.6823 76.4933 11.3909 76.5489 11.1134C80.2597 12.0846 85.9439 12.0291 89.4322 11.1273C89.4878 11.4048 89.5295 11.6823 89.5851 11.9736C85.9856 12.9587 80.0095 12.9587 76.396 11.9736ZM76.9381 9.04613C77.2299 7.51994 77.5357 6.00763 77.7997 4.41207H75.4788L74.1724 11.4742C73.9222 12.7645 74.4225 13.4027 75.4649 13.8883C76.2849 14.2768 77.2716 14.5265 78.175 14.6653C80.9406 15.1231 85.0544 15.1093 87.8062 14.6653C88.654 14.5265 89.5156 14.3184 90.2939 13.9854C91.4891 13.4859 92.0728 12.8477 91.8088 11.4742L90.4885 4.41207H88.1814C88.4455 6.00763 88.7513 7.51994 89.0431 9.04613C87.5838 9.39299 85.8327 9.58723 84.026 9.64273V4.41207H81.7467V9.64273C80.0234 9.57336 78.3417 9.37911 76.9381 9.04613ZM96.812 4.41207L95.9226 9.12937C98.2852 9.75372 101.954 9.75372 104.303 9.12937L103.441 4.41207H105.748C106.179 6.79847 106.61 9.21262 107.069 11.5851C107.305 12.7367 107.041 13.5414 105.331 14.1935C103.817 14.8456 101.732 14.9983 100.106 14.9983C98.452 14.9983 96.2561 14.8318 94.7412 14.1242C93.1708 13.4859 92.9345 12.6951 93.1569 11.5851L94.505 4.41207H96.812ZM95.5195 11.2383L95.3527 12.0985C96.7981 12.5841 98.5909 12.7229 100.106 12.7229C101.621 12.7229 103.414 12.5841 104.845 12.0985L104.692 11.2383C102.232 12.0153 98.035 12.0291 95.5195 11.2383ZM56.7167 5.00867C58.2315 5.64689 58.4539 6.43773 58.2454 7.53381C58.1342 8.03329 58.0509 8.54665 57.9675 9.06H55.6465C55.7716 8.38015 55.8967 7.70031 56.0218 7.02046C53.7425 6.17412 49.323 6.17412 46.6407 7.02046C46.7519 7.54769 46.8353 8.00554 46.9743 8.53277C47.7108 11.2244 48.5586 12.6674 51.5606 12.7367C53.2978 12.7784 54.9794 12.2927 55.7577 11.8488L56.8834 13.8189C55.855 14.4155 53.6869 15.0538 51.5189 14.9983C46.2238 14.8734 45.1814 11.9875 44.3337 7.56156C44.0557 6.10475 44.6255 5.4804 45.9597 4.95317C48.8366 3.80159 53.8676 3.80159 56.7167 5.00867ZM71.8097 9.50398C73.5331 8.85189 73.7832 8.04717 73.5609 6.89559C73.408 6.06312 73.2551 5.24453 73.1022 4.41207H70.7813L71.3372 7.40894C68.9468 8.25528 64.4578 8.28303 61.845 7.40894L62.4148 4.41207H60.1216L59.6491 6.89559C59.4267 8.00554 59.663 8.79639 61.2196 9.43461C63.1653 10.2393 66.1116 10.5168 68.7383 10.2116L69.1275 12.3066C67.6404 12.9726 65.3333 12.8477 64.0686 12.3621C64.152 11.932 64.2354 11.5019 64.3049 11.0718H61.9701C61.9145 11.3909 61.845 11.71 61.7894 12.043C61.5948 13.0975 61.845 13.8606 63.2765 14.4849C65.2222 15.2896 68.0295 15.3174 70.1559 14.3739C71.4067 13.7634 71.6152 13.0142 71.4067 11.9875C71.2677 11.2522 71.1288 10.5446 70.9759 9.79535C71.226 9.72598 71.6013 9.6011 71.8097 9.50398ZM60.9833 11.0718C60.7053 12.4731 60.5108 13.4721 60.2328 14.8873C58.8986 14.3323 58.2176 13.4582 58.4261 12.2511L58.6485 11.0718H60.9833ZM104.845 19.1883C102.232 18.2865 97.7015 18.2865 95.3666 19.1883L95.6029 20.5064H93.282L93.1291 19.7017C92.9206 18.5917 93.1569 17.8009 94.7273 17.1627C97.5764 15.9833 102.51 15.9833 105.387 17.121C106.791 17.6622 107.319 18.3004 107.027 19.8127C106.763 21.1446 106.499 22.102 106.082 23.2674C106.763 24.2941 107.11 25.6261 107.11 26.8609H104.845C104.845 26.7222 104.789 25.8064 104.623 25.4596C103.872 26.1394 102.955 26.5973 101.982 26.8748C101.079 27.1245 100.092 27.2216 99.1608 27.1661C93.7962 26.8609 91.7671 21.991 97.771 20.659C99.8973 20.1873 102.399 20.4509 104.275 21.6025C104.498 20.881 104.678 20.0347 104.845 19.1883ZM101.371 24.6826C102.107 24.4745 102.774 24.1276 103.233 23.6282C102.482 23.1148 101.523 22.8373 100.62 22.7541C99.8001 22.6708 98.994 22.7124 98.2713 22.8789C97.4235 23.0593 96.7564 23.3645 96.4924 23.7253C96.673 24.0305 97.0205 24.2803 97.4513 24.4745C98.6048 25.0017 100.161 25.0156 101.371 24.6826ZM91.239 26.8609L89.3767 22.2268C88.7374 20.437 86.6249 20.437 85.9856 22.2268L84.1233 26.8609H81.705L83.8453 21.4637C84.3178 20.1595 85.2212 19.2993 86.2496 18.897H83.2894V16.6077H92.0728V18.897H89.1126C90.141 19.2993 91.0444 20.1595 91.5169 21.4637L93.6572 26.8609H91.239ZM80.6488 17.1765C82.1637 17.8148 82.386 18.5917 82.1776 19.6878C82.0664 20.2012 81.983 20.7145 81.8996 21.2279H79.5787C79.7037 20.548 79.8288 19.8682 79.9539 19.1745C77.6052 18.3281 73.1856 18.3281 70.5728 19.1883C70.684 19.7156 70.7674 20.1734 70.9064 20.7007C71.643 23.3923 72.4907 24.8214 75.4927 24.8907C77.2299 24.9324 78.9116 24.4606 79.6898 24.0166L80.8156 25.9868C79.7871 26.5695 77.6191 27.2078 75.451 27.1661C70.1559 27.0413 69.1136 24.1554 68.2658 19.7294C67.9878 18.2726 68.5576 17.6483 69.8918 17.1072C72.7687 15.9695 77.7997 15.9695 80.6488 17.1765ZM56.3275 24.2664C58.9264 25.1682 63.471 25.1821 65.8059 24.2664L65.5557 22.9483H67.8766L68.0295 23.753C68.2519 24.863 68.0156 25.6538 66.4313 26.2921C63.5822 27.4714 58.6485 27.4714 55.7855 26.3337C54.3818 25.7926 53.8398 25.1543 54.1456 23.642C54.3957 22.3101 54.7015 21.2834 55.1045 20.1179C54.6876 19.4797 54.3818 18.7582 54.215 17.9951H56.5499C57.3004 17.3153 58.2037 16.8574 59.1766 16.5799C60.0938 16.3302 61.0667 16.2331 61.9979 16.2886C67.3624 16.5938 69.4054 21.4637 63.3876 22.7957C61.2613 23.2674 58.7596 23.0038 56.8834 21.8522C56.6611 22.5737 56.4804 23.42 56.3275 24.2664ZM59.802 18.7721C59.0515 18.9802 58.3983 19.3271 57.9258 19.8266C58.6902 20.3399 59.6352 20.6174 60.5525 20.7007C61.3585 20.7839 62.1785 20.7423 62.8873 20.5758C63.7351 20.3954 64.4022 20.0902 64.6801 19.7294C64.4856 19.4242 64.1381 19.1745 63.7212 18.9802C62.5677 18.453 60.9972 18.4391 59.802 18.7721ZM48.1 18.4391V19.3548C48.8227 19.3687 50.824 19.4242 50.7823 18.4114C49.9623 18.2171 48.9061 18.2171 48.1 18.4391ZM48.1 24.863V23.9334C48.8227 23.9334 50.824 23.8779 50.7823 24.8907C49.9623 25.085 48.9061 25.085 48.1 24.863Z" fill="#1D1E1C"/>
<path fill-rule="evenodd" clip-rule="evenodd" d="M20.0268 -3.05176e-05C31.0895 -3.05176e-05 40.0676 8.96286 40.0676 20.0069C40.0676 31.0371 31.0895 40 20.0268 40C8.96413 40 0 31.0371 0 20.0069C0 8.96286 8.96413 -3.05176e-05 20.0268 -3.05176e-05Z" fill="#E31E24"/>
<path fill-rule="evenodd" clip-rule="evenodd" d="M22.2772 24.6965V23.4061C23.3196 23.3923 24.3758 23.4061 25.4182 23.3507C29.1845 23.1564 32.1447 21.8106 32.0196 17.4401C31.9502 15.3312 29.657 14.4433 27.892 14.1519C26.3771 13.9022 23.5975 13.9022 22.0966 14.2074C20.3732 14.5404 18.3025 15.4422 18.3025 17.4956V19.3271C15.1337 18.7027 14.1887 16.8852 13.2714 14.1935C12.7433 12.6257 12.3681 11.0024 12.1596 9.51784C16.7459 7.86678 24.1257 7.88065 28.0171 9.50396C27.8364 10.6 27.7252 11.3493 27.5584 12.4037H31.5193C31.6444 11.6961 31.7556 10.9885 31.8946 10.2948C32.2559 8.42176 31.8807 7.08981 29.3096 5.99373C24.4314 3.92644 15.8564 3.92644 10.9505 5.89661C8.65733 6.81232 7.68448 7.86678 8.15701 10.3503C9.47731 17.2875 11.0895 22.1713 18.3025 23.087V24.7242C12.8267 25.2653 9.86645 28.0957 8.8519 33.3819H12.8128C13.7023 30.163 15.2171 28.6784 18.3025 28.3038V30.6209C18.3025 32.6604 20.3732 33.5761 22.0966 33.9091C23.5975 34.2005 26.3771 34.2005 27.892 33.9507C29.657 33.6594 31.9502 32.7714 32.0196 30.6625C32.1447 26.2782 29.1706 24.9323 25.3904 24.752C24.348 24.6965 23.3196 24.7103 22.2772 24.6965ZM28.1005 17.9396C28.1282 18.6611 27.8086 19.1606 27.1832 19.4658C25.7934 20.1595 22.583 19.9653 22.2633 19.9514V17.9951C23.9589 17.5373 26.391 17.5234 28.1005 17.9396ZM22.2633 30.1075V28.1512C22.6108 28.1373 25.6822 27.957 27.0859 28.5952C27.753 28.9004 28.1282 29.3999 28.1005 30.163C26.391 30.5792 23.9589 30.5654 22.2633 30.1075Z" fill="#FEFEFE"/>
</svg>
