<svg width="16" height="15" viewBox="0 0 16 15" fill="none" xmlns="http://www.w3.org/2000/svg">
<g clip-path="url(#clip0)">
<path d="M14.9672 4.58061C14.5895 3.68726 14.0489 2.88532 13.36 2.19672C12.6714 1.50795 11.8693 0.967018 10.9763 0.589319C10.0516 0.198393 9.06936 0 8.0568 0C7.04424 0 6.06199 0.198393 5.1375 0.589486C4.24448 0.967186 3.44237 1.50795 2.75377 2.19689C2.065 2.88548 1.52424 3.68743 1.14654 4.58061C0.755445 5.50511 0.556885 6.48719 0.556885 7.49992C0.556885 8.51264 0.755278 9.49473 1.14637 10.4194C1.52407 11.3127 2.06484 12.1145 2.7536 12.8031C3.44237 13.4919 4.24431 14.033 5.13733 14.4107C6.06199 14.8018 7.04424 15.0002 8.0568 15.0002C9.06936 15.0002 10.0516 14.8018 10.9763 14.4107C11.8693 14.033 12.6714 13.4922 13.36 12.8031C14.0488 12.1145 14.5895 11.3127 14.9672 10.4194C15.3583 9.49506 15.5567 8.51264 15.5567 7.49992C15.5567 6.48719 15.3583 5.50511 14.9672 4.58061ZM15.2133 7.49992C15.2133 11.446 12.0029 14.6565 8.0568 14.6565C4.11071 14.6565 0.900263 11.446 0.900263 7.49992C0.900263 3.55383 4.11071 0.343379 8.0568 0.343379C12.0031 0.343379 15.2133 3.55383 15.2133 7.49992Z" fill="#FF0000"/>
<path d="M10.3358 4.90576C9.89847 4.90576 9.48085 5.08784 9.1832 5.40829C8.57064 6.06779 7.53064 6.07981 6.903 5.43466L6.86639 5.39703C6.56083 5.08295 6.14125 4.90576 5.70306 4.90576H4.30276C2.85934 4.90576 1.69103 6.0793 1.69748 7.5227C1.70388 8.95702 2.86843 10.1164 4.30276 10.1164H5.47676C5.95746 10.1164 6.41877 10.3059 6.76058 10.6439L6.79501 10.678C7.49702 11.3721 8.63017 11.3614 9.31888 10.654C9.65355 10.3103 10.1129 10.1164 10.5927 10.1164H11.822C13.2609 10.1164 14.4273 8.94994 14.4273 7.51107C14.4273 6.0722 13.2609 4.90576 11.822 4.90576H10.3358ZM9.14682 10.2602C8.54558 10.8726 7.5607 10.8785 6.95214 10.2734L6.93329 10.2546C6.63848 9.96149 6.23963 9.79694 5.82388 9.79694H4.29143C3.02898 9.79694 2.00556 8.77352 2.00556 7.51107C2.00556 6.24862 3.02898 5.2252 4.29143 5.2252H5.49429C5.96754 5.2252 6.42152 5.41271 6.75684 5.74667L6.81491 5.80451C7.49763 6.48448 8.60713 6.46614 9.26701 5.76399C9.59011 5.42019 10.0409 5.2252 10.5127 5.2252H11.8223C13.0848 5.2252 14.1082 6.24862 14.1082 7.51107C14.1082 8.77352 13.0848 9.79694 11.8223 9.79694H10.2507C9.8355 9.79694 9.43771 9.96387 9.14682 10.2602Z" fill="#FF0000"/>
<path d="M6.68212 6.03869C6.32602 5.68401 5.84389 5.48486 5.34129 5.48486H4.29167C3.17258 5.48486 2.26538 6.39206 2.26538 7.51115V7.5675C2.26538 8.65546 3.14735 9.53743 4.23532 9.53743H6.03789C6.12093 9.53743 6.18846 9.4705 6.18919 9.38747C6.19038 9.25342 6.3524 9.18701 6.44733 9.28166L7.51867 10.3498C7.81547 10.6457 8.29605 10.6447 8.59158 10.3475L9.64131 9.29196C9.73188 9.20088 9.88735 9.26502 9.88735 9.39347C9.88735 9.47298 9.9518 9.53743 10.0313 9.53743H11.8678C12.9616 9.53743 13.8483 8.65073 13.8483 7.55694V7.51115C13.8483 6.39206 12.9411 5.48486 11.8221 5.48486H10.6709C10.1698 5.48486 9.69106 5.69195 9.34793 6.05708C8.64714 6.80279 7.46881 6.82226 6.74377 6.10009L6.68212 6.03869Z" fill="#FF0000"/>
</g>
<defs>
<clipPath id="clip0">
<rect x="0.556763" width="15" height="15" fill="white"/>
</clipPath>
</defs>
</svg>
