<svg width="40" height="40" viewBox="0 0 40 40" fill="none" xmlns="http://www.w3.org/2000/svg">
<path fill-rule="evenodd" clip-rule="evenodd" d="M19.9931 -3.05176e-05C31.0371 -3.05176e-05 40 8.96286 40 20.0069C40 31.0371 31.0371 40 19.9931 40C8.94904 40 3.05176e-05 31.0371 3.05176e-05 20.0069C3.05176e-05 8.96286 8.94904 -3.05176e-05 19.9931 -3.05176e-05Z" fill="#E31E24"/>
<path d="M28.74 25.0592C28.6983 24.8012 28.5365 24.5807 28.2943 24.4497L24.7105 22.3382L24.681 22.3217C24.5308 22.2465 24.3648 22.208 24.1968 22.2092C23.8965 22.2092 23.6098 22.323 23.4108 22.5225L22.353 23.5807C22.3078 23.6237 22.1603 23.686 22.1155 23.6882C22.1033 23.6872 20.8848 23.5995 18.6415 21.356C16.4023 19.1172 16.3073 17.895 16.3065 17.895C16.3078 17.8325 16.3693 17.6855 16.413 17.64L17.315 16.7382C17.6328 16.4197 17.728 15.8917 17.5395 15.4827L15.5475 11.7345C15.4028 11.4365 15.1215 11.2525 14.8095 11.2525C14.5888 11.2525 14.3758 11.344 14.2093 11.5102L11.7505 13.9635C11.5148 14.198 11.3118 14.608 11.2675 14.938C11.246 15.0957 10.8098 18.8612 15.9723 24.0245C20.355 28.4067 23.7725 28.7472 24.7163 28.7472C24.8312 28.7487 24.9461 28.7428 25.0603 28.7295C25.3893 28.6855 25.7988 28.483 26.033 28.2482L28.4898 25.7917C28.6903 25.5902 28.7818 25.324 28.74 25.0592Z" fill="white"/>
</svg>
