<svg width="201" height="55" viewBox="0 0 201 55" fill="none" xmlns="http://www.w3.org/2000/svg">
<path d="M0.5 5.40186C0.5 2.64044 2.73858 0.401855 5.5 0.401855H195.5C198.261 0.401855 200.5 2.64043 200.5 5.40186V39.8533C200.5 42.6147 198.261 44.8533 195.5 44.8533H179.499L174.05 52.2096C173.245 53.2956 171.617 53.2875 170.824 52.1936L165.498 44.8533H5.50001C2.73859 44.8533 0.5 42.6147 0.5 39.8533V5.40186Z" fill="#27292D"/>
<path d="M14.74 20.4819C14.0333 20.4819 13.3967 20.3285 12.83 20.0219C12.2633 19.7085 11.8167 19.2785 11.49 18.7319C11.17 18.1852 11.01 17.5752 11.01 16.9019C11.01 16.2285 11.17 15.6185 11.49 15.0719C11.8167 14.5252 12.2633 14.0985 12.83 13.7919C13.3967 13.4785 14.0333 13.3219 14.74 13.3219C15.44 13.3219 16.0733 13.4785 16.64 13.7919C17.2067 14.0985 17.65 14.5252 17.97 15.0719C18.29 15.6119 18.45 16.2219 18.45 16.9019C18.45 17.5819 18.29 18.1952 17.97 18.7419C17.65 19.2819 17.2067 19.7085 16.64 20.0219C16.0733 20.3285 15.44 20.4819 14.74 20.4819ZM14.74 19.5919C15.2533 19.5919 15.7133 19.4752 16.12 19.2419C16.5333 19.0085 16.8567 18.6885 17.09 18.2819C17.33 17.8685 17.45 17.4085 17.45 16.9019C17.45 16.3952 17.33 15.9385 17.09 15.5319C16.8567 15.1185 16.5333 14.7952 16.12 14.5619C15.7133 14.3285 15.2533 14.2119 14.74 14.2119C14.2267 14.2119 13.76 14.3285 13.34 14.5619C12.9267 14.7952 12.6 15.1185 12.36 15.5319C12.1267 15.9385 12.01 16.3952 12.01 16.9019C12.01 17.4085 12.1267 17.8685 12.36 18.2819C12.6 18.6885 12.9267 19.0085 13.34 19.2419C13.76 19.4752 14.2267 19.5919 14.74 19.5919ZM22.6008 17.6419C22.9541 17.7352 23.2274 17.8852 23.4208 18.0919C23.6141 18.2985 23.7108 18.5552 23.7108 18.8619C23.7108 19.1752 23.6041 19.4552 23.3908 19.7019C23.1774 19.9419 22.8808 20.1319 22.5008 20.2719C22.1274 20.4052 21.7074 20.4719 21.2408 20.4719C20.8474 20.4719 20.4608 20.4219 20.0808 20.3219C19.7074 20.2152 19.3741 20.0652 19.0808 19.8719L19.3708 19.1419C19.6241 19.3019 19.9141 19.4285 20.2408 19.5219C20.5674 19.6085 20.8974 19.6519 21.2308 19.6519C21.6841 19.6519 22.0441 19.5752 22.3108 19.4219C22.5841 19.2619 22.7208 19.0485 22.7208 18.7819C22.7208 18.5352 22.6108 18.3452 22.3908 18.2119C22.1774 18.0785 21.8741 18.0119 21.4808 18.0119H20.5108V17.3219H21.4108C21.7708 17.3219 22.0541 17.2585 22.2608 17.1319C22.4674 17.0052 22.5708 16.8319 22.5708 16.6119C22.5708 16.3719 22.4474 16.1852 22.2008 16.0519C21.9608 15.9185 21.6341 15.8519 21.2208 15.8519C20.6941 15.8519 20.1374 15.9885 19.5508 16.2619L19.2908 15.5219C19.9374 15.1952 20.6141 15.0319 21.3208 15.0319C21.7474 15.0319 22.1308 15.0919 22.4708 15.2119C22.8108 15.3319 23.0774 15.5019 23.2708 15.7219C23.4641 15.9419 23.5608 16.1919 23.5608 16.4719C23.5608 16.7319 23.4741 16.9652 23.3008 17.1719C23.1274 17.3785 22.8941 17.5352 22.6008 17.6419ZM25.1702 15.1019H26.1302V17.3519H29.1502V15.1019H30.1102V20.4019H29.1502V18.1819H26.1302V20.4019H25.1702V15.1019ZM33.8669 15.0519C34.6002 15.0519 35.1602 15.2319 35.5469 15.5919C35.9402 15.9519 36.1369 16.4885 36.1369 17.2019V20.4019H35.2269V19.7019C35.0669 19.9485 34.8369 20.1385 34.5369 20.2719C34.2435 20.3985 33.8935 20.4619 33.4869 20.4619C32.8935 20.4619 32.4169 20.3185 32.0569 20.0319C31.7035 19.7452 31.5269 19.3685 31.5269 18.9019C31.5269 18.4352 31.6969 18.0619 32.0369 17.7819C32.3769 17.4952 32.9169 17.3519 33.6569 17.3519H35.1769V17.1619C35.1769 16.7485 35.0569 16.4319 34.8169 16.2119C34.5769 15.9919 34.2235 15.8819 33.7569 15.8819C33.4435 15.8819 33.1369 15.9352 32.8369 16.0419C32.5369 16.1419 32.2835 16.2785 32.0769 16.4519L31.6769 15.7319C31.9502 15.5119 32.2769 15.3452 32.6569 15.2319C33.0369 15.1119 33.4402 15.0519 33.8669 15.0519ZM33.6469 19.7219C34.0135 19.7219 34.3302 19.6419 34.5969 19.4819C34.8635 19.3152 35.0569 19.0819 35.1769 18.7819V18.0419H33.6969C32.8835 18.0419 32.4769 18.3152 32.4769 18.8619C32.4769 19.1285 32.5802 19.3385 32.7869 19.4919C32.9935 19.6452 33.2802 19.7219 33.6469 19.7219ZM39.9255 18.1619H38.8255V20.4019H37.8655V15.1019H38.8255V17.3419H39.9455L41.6655 15.1019H42.6955L40.6855 17.6519L42.8355 20.4019H41.7055L39.9255 18.1619ZM45.9363 20.4619C45.4097 20.4619 44.9363 20.3452 44.5163 20.1119C44.0963 19.8785 43.7663 19.5585 43.5263 19.1519C43.293 18.7385 43.1763 18.2719 43.1763 17.7519C43.1763 17.2319 43.293 16.7685 43.5263 16.3619C43.7663 15.9485 44.0963 15.6285 44.5163 15.4019C44.9363 15.1685 45.4097 15.0519 45.9363 15.0519C46.463 15.0519 46.933 15.1685 47.3463 15.4019C47.7663 15.6285 48.093 15.9485 48.3263 16.3619C48.5663 16.7685 48.6863 17.2319 48.6863 17.7519C48.6863 18.2719 48.5663 18.7385 48.3263 19.1519C48.093 19.5585 47.7663 19.8785 47.3463 20.1119C46.933 20.3452 46.463 20.4619 45.9363 20.4619ZM45.9363 19.6219C46.2763 19.6219 46.5797 19.5452 46.8463 19.3919C47.1197 19.2319 47.333 19.0119 47.4863 18.7319C47.6397 18.4452 47.7163 18.1185 47.7163 17.7519C47.7163 17.3852 47.6397 17.0619 47.4863 16.7819C47.333 16.4952 47.1197 16.2752 46.8463 16.1219C46.5797 15.9685 46.2763 15.8919 45.9363 15.8919C45.5963 15.8919 45.2897 15.9685 45.0163 16.1219C44.7497 16.2752 44.5363 16.4952 44.3763 16.7819C44.223 17.0619 44.1463 17.3852 44.1463 17.7519C44.1463 18.1185 44.223 18.4452 44.3763 18.7319C44.5363 19.0119 44.7497 19.2319 45.0163 19.3919C45.2897 19.5452 45.5963 19.6219 45.9363 19.6219ZM56.1826 15.1019V20.4019H55.3126V16.5319L53.3326 19.8019H52.9126L50.9526 16.5219V20.4019H50.0726V15.1019H51.0626L53.1426 18.6819L55.2826 15.1019H56.1826ZM60.5011 16.9019C61.1744 16.9085 61.6878 17.0619 62.0411 17.3619C62.3944 17.6619 62.5711 18.0852 62.5711 18.6319C62.5711 19.2052 62.3778 19.6485 61.9911 19.9619C61.6111 20.2685 61.0644 20.4185 60.3511 20.4119L58.0511 20.4019V15.1019H59.0111V16.8919L60.5011 16.9019ZM60.2711 19.6819C60.7044 19.6885 61.0311 19.6019 61.2511 19.4219C61.4778 19.2419 61.5911 18.9752 61.5911 18.6219C61.5911 18.2752 61.4811 18.0219 61.2611 17.8619C61.0478 17.7019 60.7178 17.6185 60.2711 17.6119L59.0111 17.5919V19.6719L60.2711 19.6819ZM67.2355 15.9419H65.2955V20.4019H64.3355V15.9419H62.3955V15.1019H67.2355V15.9419ZM72.7727 17.7819C72.7727 17.8552 72.7661 17.9519 72.7527 18.0719H68.4527C68.5127 18.5385 68.7161 18.9152 69.0627 19.2019C69.4161 19.4819 69.8527 19.6219 70.3727 19.6219C71.0061 19.6219 71.5161 19.4085 71.9027 18.9819L72.4327 19.6019C72.1927 19.8819 71.8927 20.0952 71.5327 20.2419C71.1794 20.3885 70.7827 20.4619 70.3427 20.4619C69.7827 20.4619 69.2861 20.3485 68.8527 20.1219C68.4194 19.8885 68.0827 19.5652 67.8427 19.1519C67.6094 18.7385 67.4927 18.2719 67.4927 17.7519C67.4927 17.2385 67.6061 16.7752 67.8327 16.3619C68.0661 15.9485 68.3827 15.6285 68.7827 15.4019C69.1894 15.1685 69.6461 15.0519 70.1527 15.0519C70.6594 15.0519 71.1094 15.1685 71.5027 15.4019C71.9027 15.6285 72.2127 15.9485 72.4327 16.3619C72.6594 16.7752 72.7727 17.2485 72.7727 17.7819ZM70.1527 15.8619C69.6927 15.8619 69.3061 16.0019 68.9927 16.2819C68.6861 16.5619 68.5061 16.9285 68.4527 17.3819H71.8527C71.7994 16.9352 71.6161 16.5719 71.3027 16.2919C70.9961 16.0052 70.6127 15.8619 70.1527 15.8619ZM76.572 20.4619C76.032 20.4619 75.5487 20.3452 75.122 20.1119C74.702 19.8785 74.372 19.5585 74.132 19.1519C73.892 18.7385 73.772 18.2719 73.772 17.7519C73.772 17.2319 73.892 16.7685 74.132 16.3619C74.372 15.9485 74.702 15.6285 75.122 15.4019C75.5487 15.1685 76.032 15.0519 76.572 15.0519C77.052 15.0519 77.4787 15.1485 77.852 15.3419C78.232 15.5352 78.5254 15.8152 78.732 16.1819L78.002 16.6519C77.8354 16.3985 77.6287 16.2085 77.382 16.0819C77.1354 15.9552 76.862 15.8919 76.562 15.8919C76.2154 15.8919 75.902 15.9685 75.622 16.1219C75.3487 16.2752 75.132 16.4952 74.972 16.7819C74.8187 17.0619 74.742 17.3852 74.742 17.7519C74.742 18.1252 74.8187 18.4552 74.972 18.7419C75.132 19.0219 75.3487 19.2385 75.622 19.3919C75.902 19.5452 76.2154 19.6219 76.562 19.6219C76.862 19.6219 77.1354 19.5585 77.382 19.4319C77.6287 19.3052 77.8354 19.1152 78.002 18.8619L78.732 19.3219C78.5254 19.6885 78.232 19.9719 77.852 20.1719C77.4787 20.3652 77.052 20.4619 76.572 20.4619ZM82.4249 16.9019C83.0983 16.9085 83.6116 17.0619 83.9649 17.3619C84.3183 17.6619 84.4949 18.0852 84.4949 18.6319C84.4949 19.2052 84.3016 19.6485 83.9149 19.9619C83.5349 20.2685 82.9883 20.4185 82.2749 20.4119L79.9749 20.4019V15.1019H80.9349V16.8919L82.4249 16.9019ZM82.1949 19.6819C82.6283 19.6885 82.9549 19.6019 83.1749 19.4219C83.4016 19.2419 83.5149 18.9752 83.5149 18.6219C83.5149 18.2752 83.4049 18.0219 83.1849 17.8619C82.9716 17.7019 82.6416 17.6185 82.1949 17.6119L80.9349 17.5919V19.6719L82.1949 19.6819ZM90.7224 20.4619C90.1824 20.4619 89.6991 20.3452 89.2724 20.1119C88.8524 19.8785 88.5224 19.5585 88.2824 19.1519C88.0424 18.7385 87.9224 18.2719 87.9224 17.7519C87.9224 17.2319 88.0424 16.7685 88.2824 16.3619C88.5224 15.9485 88.8524 15.6285 89.2724 15.4019C89.6991 15.1685 90.1824 15.0519 90.7224 15.0519C91.2024 15.0519 91.6291 15.1485 92.0024 15.3419C92.3824 15.5352 92.6758 15.8152 92.8824 16.1819L92.1524 16.6519C91.9858 16.3985 91.7791 16.2085 91.5324 16.0819C91.2858 15.9552 91.0124 15.8919 90.7124 15.8919C90.3658 15.8919 90.0524 15.9685 89.7724 16.1219C89.4991 16.2752 89.2824 16.4952 89.1224 16.7819C88.9691 17.0619 88.8924 17.3852 88.8924 17.7519C88.8924 18.1252 88.9691 18.4552 89.1224 18.7419C89.2824 19.0219 89.4991 19.2385 89.7724 19.3919C90.0524 19.5452 90.3658 19.6219 90.7124 19.6219C91.0124 19.6219 91.2858 19.5585 91.5324 19.4319C91.7791 19.3052 91.9858 19.1152 92.1524 18.8619L92.8824 19.3219C92.6758 19.6885 92.3824 19.9719 92.0024 20.1719C91.6291 20.3652 91.2024 20.4619 90.7224 20.4619ZM101.541 15.1019L98.9709 20.9319C98.7442 21.4719 98.4775 21.8519 98.1709 22.0719C97.8709 22.2919 97.5075 22.4019 97.0809 22.4019C96.8209 22.4019 96.5675 22.3585 96.3209 22.2719C96.0809 22.1919 95.8809 22.0719 95.7209 21.9119L96.1309 21.1919C96.4042 21.4519 96.7209 21.5819 97.0809 21.5819C97.3142 21.5819 97.5075 21.5185 97.6609 21.3919C97.8209 21.2719 97.9642 21.0619 98.0909 20.7619L98.2609 20.3919L95.9209 15.1019H96.9209L98.7709 19.3419L100.601 15.1019H101.541ZM104.687 20.4619C104.147 20.4619 103.664 20.3452 103.237 20.1119C102.817 19.8785 102.487 19.5585 102.247 19.1519C102.007 18.7385 101.887 18.2719 101.887 17.7519C101.887 17.2319 102.007 16.7685 102.247 16.3619C102.487 15.9485 102.817 15.6285 103.237 15.4019C103.664 15.1685 104.147 15.0519 104.687 15.0519C105.167 15.0519 105.594 15.1485 105.967 15.3419C106.347 15.5352 106.641 15.8152 106.847 16.1819L106.117 16.6519C105.951 16.3985 105.744 16.2085 105.497 16.0819C105.251 15.9552 104.977 15.8919 104.677 15.8919C104.331 15.8919 104.017 15.9685 103.737 16.1219C103.464 16.2752 103.247 16.4952 103.087 16.7819C102.934 17.0619 102.857 17.3852 102.857 17.7519C102.857 18.1252 102.934 18.4552 103.087 18.7419C103.247 19.0219 103.464 19.2385 103.737 19.3919C104.017 19.5452 104.331 19.6219 104.677 19.6219C104.977 19.6219 105.251 19.5585 105.497 19.4319C105.744 19.3052 105.951 19.1152 106.117 18.8619L106.847 19.3219C106.641 19.6885 106.347 19.9719 105.967 20.1719C105.594 20.3652 105.167 20.4619 104.687 20.4619ZM112.484 15.1019V20.4019H111.524V15.9419H109.244L109.184 17.1219C109.151 17.8352 109.087 18.4319 108.994 18.9119C108.901 19.3852 108.747 19.7652 108.534 20.0519C108.321 20.3385 108.024 20.4819 107.644 20.4819C107.471 20.4819 107.274 20.4519 107.054 20.3919L107.114 19.5819C107.201 19.6019 107.281 19.6119 107.354 19.6119C107.621 19.6119 107.821 19.4952 107.954 19.2619C108.087 19.0285 108.174 18.7519 108.214 18.4319C108.254 18.1119 108.291 17.6552 108.324 17.0619L108.414 15.1019H112.484ZM116.61 20.4619C116.083 20.4619 115.61 20.3452 115.19 20.1119C114.77 19.8785 114.44 19.5585 114.2 19.1519C113.967 18.7385 113.85 18.2719 113.85 17.7519C113.85 17.2319 113.967 16.7685 114.2 16.3619C114.44 15.9485 114.77 15.6285 115.19 15.4019C115.61 15.1685 116.083 15.0519 116.61 15.0519C117.137 15.0519 117.607 15.1685 118.02 15.4019C118.44 15.6285 118.767 15.9485 119 16.3619C119.24 16.7685 119.36 17.2319 119.36 17.7519C119.36 18.2719 119.24 18.7385 119 19.1519C118.767 19.5585 118.44 19.8785 118.02 20.1119C117.607 20.3452 117.137 20.4619 116.61 20.4619ZM116.61 19.6219C116.95 19.6219 117.253 19.5452 117.52 19.3919C117.793 19.2319 118.007 19.0119 118.16 18.7319C118.313 18.4452 118.39 18.1185 118.39 17.7519C118.39 17.3852 118.313 17.0619 118.16 16.7819C118.007 16.4952 117.793 16.2752 117.52 16.1219C117.253 15.9685 116.95 15.8919 116.61 15.8919C116.27 15.8919 115.963 15.9685 115.69 16.1219C115.423 16.2752 115.21 16.4952 115.05 16.7819C114.897 17.0619 114.82 17.3852 114.82 17.7519C114.82 18.1185 114.897 18.4452 115.05 18.7319C115.21 19.0119 115.423 19.2319 115.69 19.3919C115.963 19.5452 116.27 19.6219 116.61 19.6219ZM124.356 17.6519C125.043 17.8252 125.386 18.2552 125.386 18.9419C125.386 19.4085 125.21 19.7685 124.856 20.0219C124.51 20.2752 123.99 20.4019 123.296 20.4019H120.746V15.1019H123.206C123.833 15.1019 124.323 15.2219 124.676 15.4619C125.03 15.6952 125.206 16.0285 125.206 16.4619C125.206 16.7419 125.13 16.9852 124.976 17.1919C124.83 17.3919 124.623 17.5452 124.356 17.6519ZM121.686 17.3819H123.126C123.493 17.3819 123.77 17.3152 123.956 17.1819C124.15 17.0485 124.246 16.8552 124.246 16.6019C124.246 16.0952 123.873 15.8419 123.126 15.8419H121.686V17.3819ZM123.226 19.6619C123.626 19.6619 123.926 19.5985 124.126 19.4719C124.326 19.3452 124.426 19.1485 124.426 18.8819C124.426 18.6085 124.333 18.4052 124.146 18.2719C123.966 18.1385 123.68 18.0719 123.286 18.0719H121.686V19.6619H123.226ZM126.889 15.1019H127.849V18.9619L131.099 15.1019H131.969V20.4019H131.009V16.5419L127.769 20.4019H126.889V15.1019ZM138.082 15.1019V20.4019H137.222V18.7219H135.682H135.572L134.412 20.4019H133.382L134.672 18.5919C134.272 18.4719 133.966 18.2752 133.752 18.0019C133.539 17.7219 133.432 17.3752 133.432 16.9619C133.432 16.3552 133.639 15.8952 134.052 15.5819C134.466 15.2619 135.036 15.1019 135.762 15.1019H138.082ZM134.412 16.9919C134.412 17.3452 134.522 17.6085 134.742 17.7819C134.969 17.9485 135.306 18.0319 135.752 18.0319H137.222V15.9419H135.792C134.872 15.9419 134.412 16.2919 134.412 16.9919ZM146.065 15.1019V20.4019H145.195V16.5319L143.215 19.8019H142.795L140.835 16.5219V20.4019H139.955V15.1019H140.945L143.025 18.6819L145.165 15.1019H146.065ZM147.934 15.1019H148.894V18.9619L152.144 15.1019H153.014V20.4019H152.054V16.5419L148.814 20.4019H147.934V15.1019ZM13.7 32.4619C13.1733 32.4619 12.7 32.3452 12.28 32.1119C11.86 31.8785 11.53 31.5585 11.29 31.1519C11.0567 30.7385 10.94 30.2719 10.94 29.7519C10.94 29.2319 11.0567 28.7685 11.29 28.3619C11.53 27.9485 11.86 27.6285 12.28 27.4019C12.7 27.1685 13.1733 27.0519 13.7 27.0519C14.2267 27.0519 14.6967 27.1685 15.11 27.4019C15.53 27.6285 15.8567 27.9485 16.09 28.3619C16.33 28.7685 16.45 29.2319 16.45 29.7519C16.45 30.2719 16.33 30.7385 16.09 31.1519C15.8567 31.5585 15.53 31.8785 15.11 32.1119C14.6967 32.3452 14.2267 32.4619 13.7 32.4619ZM13.7 31.6219C14.04 31.6219 14.3433 31.5452 14.61 31.3919C14.8833 31.2319 15.0967 31.0119 15.25 30.7319C15.4033 30.4452 15.48 30.1185 15.48 29.7519C15.48 29.3852 15.4033 29.0619 15.25 28.7819C15.0967 28.4952 14.8833 28.2752 14.61 28.1219C14.3433 27.9685 14.04 27.8919 13.7 27.8919C13.36 27.8919 13.0533 27.9685 12.78 28.1219C12.5133 28.2752 12.3 28.4952 12.14 28.7819C11.9867 29.0619 11.91 29.3852 11.91 29.7519C11.91 30.1185 11.9867 30.4452 12.14 30.7319C12.3 31.0119 12.5133 31.2319 12.78 31.3919C13.0533 31.5452 13.36 31.6219 13.7 31.6219ZM22.7463 27.1019V32.4019H21.7863V27.9419H18.7963V32.4019H17.8363V27.1019H22.7463ZM29.1538 27.1019V32.4019H28.1938V27.9419H25.9138L25.8538 29.1219C25.8205 29.8352 25.7572 30.4319 25.6638 30.9119C25.5705 31.3852 25.4172 31.7652 25.2038 32.0519C24.9905 32.3385 24.6938 32.4819 24.3138 32.4819C24.1405 32.4819 23.9438 32.4519 23.7238 32.3919L23.7838 31.5819C23.8705 31.6019 23.9505 31.6119 24.0238 31.6119C24.2905 31.6119 24.4905 31.4952 24.6238 31.2619C24.7572 31.0285 24.8438 30.7519 24.8838 30.4319C24.9238 30.1119 24.9605 29.6552 24.9938 29.0619L25.0838 27.1019H29.1538ZM32.9001 27.0519C33.6334 27.0519 34.1934 27.2319 34.5801 27.5919C34.9734 27.9519 35.1701 28.4885 35.1701 29.2019V32.4019H34.2601V31.7019C34.1001 31.9485 33.8701 32.1385 33.5701 32.2719C33.2767 32.3985 32.9267 32.4619 32.5201 32.4619C31.9267 32.4619 31.4501 32.3185 31.0901 32.0319C30.7367 31.7452 30.5601 31.3685 30.5601 30.9019C30.5601 30.4352 30.7301 30.0619 31.0701 29.7819C31.4101 29.4952 31.9501 29.3519 32.6901 29.3519H34.2101V29.1619C34.2101 28.7485 34.0901 28.4319 33.8501 28.2119C33.6101 27.9919 33.2567 27.8819 32.7901 27.8819C32.4767 27.8819 32.1701 27.9352 31.8701 28.0419C31.5701 28.1419 31.3167 28.2785 31.1101 28.4519L30.7101 27.7319C30.9834 27.5119 31.3101 27.3452 31.6901 27.2319C32.0701 27.1119 32.4734 27.0519 32.9001 27.0519ZM32.6801 31.7219C33.0467 31.7219 33.3634 31.6419 33.6301 31.4819C33.8967 31.3152 34.0901 31.0819 34.2101 30.7819V30.0419H32.7301C31.9167 30.0419 31.5101 30.3152 31.5101 30.8619C31.5101 31.1285 31.6134 31.3385 31.8201 31.4919C32.0267 31.6452 32.3134 31.7219 32.6801 31.7219ZM40.8488 27.9419H38.9087V32.4019H37.9488V27.9419H36.0088V27.1019H40.8488V27.9419ZM44.2204 28.9019C44.8871 28.9085 45.3971 29.0619 45.7504 29.3619C46.1037 29.6619 46.2804 30.0852 46.2804 30.6319C46.2804 31.2052 46.0871 31.6485 45.7004 31.9619C45.3204 32.2685 44.7737 32.4185 44.0604 32.4119L41.8304 32.4019V27.1019H42.7904V28.8919L44.2204 28.9019ZM47.0704 27.1019H48.0304V32.4019H47.0704V27.1019ZM43.9904 31.6819C44.4237 31.6885 44.7504 31.6019 44.9704 31.4219C45.1971 31.2419 45.3104 30.9752 45.3104 30.6219C45.3104 30.2752 45.2004 30.0219 44.9804 29.8619C44.7604 29.7019 44.4304 29.6185 43.9904 29.6119L42.7904 29.5919V31.6719L43.9904 31.6819ZM52.5823 27.1019H53.5423V30.9619L56.7923 27.1019H57.6623V32.4019H56.7023V28.5419L53.4623 32.4019H52.5823V27.1019ZM67.6013 31.5619V33.6319H66.7013V32.4019H62.2713V33.6319H61.3613V31.5619H61.6413C61.9813 31.5419 62.2146 31.3019 62.3413 30.8419C62.4679 30.3819 62.5546 29.7319 62.6012 28.8919L62.6813 27.1019H66.7912V31.5619H67.6013ZM63.4813 28.9619C63.4546 29.6285 63.3979 30.1819 63.3113 30.6219C63.2313 31.0552 63.0813 31.3685 62.8613 31.5619H65.8313V27.9419H63.5313L63.4813 28.9619ZM71.1219 32.4619C70.5952 32.4619 70.1219 32.3452 69.7019 32.1119C69.2819 31.8785 68.9519 31.5585 68.7119 31.1519C68.4785 30.7385 68.3619 30.2719 68.3619 29.7519C68.3619 29.2319 68.4785 28.7685 68.7119 28.3619C68.9519 27.9485 69.2819 27.6285 69.7019 27.4019C70.1219 27.1685 70.5952 27.0519 71.1219 27.0519C71.6485 27.0519 72.1185 27.1685 72.5319 27.4019C72.9519 27.6285 73.2785 27.9485 73.5119 28.3619C73.7519 28.7685 73.8719 29.2319 73.8719 29.7519C73.8719 30.2719 73.7519 30.7385 73.5119 31.1519C73.2785 31.5585 72.9519 31.8785 72.5319 32.1119C72.1185 32.3452 71.6485 32.4619 71.1219 32.4619ZM71.1219 31.6219C71.4619 31.6219 71.7652 31.5452 72.0319 31.3919C72.3052 31.2319 72.5185 31.0119 72.6719 30.7319C72.8252 30.4452 72.9019 30.1185 72.9019 29.7519C72.9019 29.3852 72.8252 29.0619 72.6719 28.7819C72.5185 28.4952 72.3052 28.2752 72.0319 28.1219C71.7652 27.9685 71.4619 27.8919 71.1219 27.8919C70.7819 27.8919 70.4752 27.9685 70.2019 28.1219C69.9352 28.2752 69.7219 28.4952 69.5619 28.7819C69.4085 29.0619 69.3319 29.3852 69.3319 29.7519C69.3319 30.1185 69.4085 30.4452 69.5619 30.7319C69.7219 31.0119 69.9352 31.2319 70.2019 31.3919C70.4752 31.5452 70.7819 31.6219 71.1219 31.6219ZM77.5681 32.4619C77.0281 32.4619 76.5448 32.3452 76.1181 32.1119C75.6981 31.8785 75.3681 31.5585 75.1281 31.1519C74.8881 30.7385 74.7681 30.2719 74.7681 29.7519C74.7681 29.2319 74.8881 28.7685 75.1281 28.3619C75.3681 27.9485 75.6981 27.6285 76.1181 27.4019C76.5448 27.1685 77.0281 27.0519 77.5681 27.0519C78.0481 27.0519 78.4748 27.1485 78.8481 27.3419C79.2281 27.5352 79.5215 27.8152 79.7281 28.1819L78.9981 28.6519C78.8315 28.3985 78.6248 28.2085 78.3781 28.0819C78.1315 27.9552 77.8581 27.8919 77.5581 27.8919C77.2115 27.8919 76.8981 27.9685 76.6181 28.1219C76.3448 28.2752 76.1281 28.4952 75.9681 28.7819C75.8148 29.0619 75.7381 29.3852 75.7381 29.7519C75.7381 30.1252 75.8148 30.4552 75.9681 30.7419C76.1281 31.0219 76.3448 31.2385 76.6181 31.3919C76.8981 31.5452 77.2115 31.6219 77.5581 31.6219C77.8581 31.6219 78.1315 31.5585 78.3781 31.4319C78.6248 31.3052 78.8315 31.1152 78.9981 30.8619L79.7281 31.3219C79.5215 31.6885 79.2281 31.9719 78.8481 32.1719C78.4748 32.3652 78.0481 32.4619 77.5681 32.4619ZM84.8527 27.9419H82.9127V32.4019H81.9527V27.9419H80.0127V27.1019H84.8527V27.9419ZM87.7243 27.0519C88.4576 27.0519 89.0176 27.2319 89.4043 27.5919C89.7976 27.9519 89.9943 28.4885 89.9943 29.2019V32.4019H89.0843V31.7019C88.9243 31.9485 88.6943 32.1385 88.3943 32.2719C88.101 32.3985 87.751 32.4619 87.3443 32.4619C86.751 32.4619 86.2743 32.3185 85.9143 32.0319C85.561 31.7452 85.3843 31.3685 85.3843 30.9019C85.3843 30.4352 85.5543 30.0619 85.8943 29.7819C86.2343 29.4952 86.7743 29.3519 87.5143 29.3519H89.0343V29.1619C89.0343 28.7485 88.9143 28.4319 88.6743 28.2119C88.4343 27.9919 88.081 27.8819 87.6143 27.8819C87.301 27.8819 86.9943 27.9352 86.6943 28.0419C86.3943 28.1419 86.141 28.2785 85.9343 28.4519L85.5343 27.7319C85.8076 27.5119 86.1343 27.3452 86.5143 27.2319C86.8943 27.1119 87.2976 27.0519 87.7243 27.0519ZM87.5043 31.7219C87.871 31.7219 88.1876 31.6419 88.4543 31.4819C88.721 31.3152 88.9143 31.0819 89.0343 30.7819V30.0419H87.5543C86.741 30.0419 86.3343 30.3152 86.3343 30.8619C86.3343 31.1285 86.4376 31.3385 86.6443 31.4919C86.851 31.6452 87.1376 31.7219 87.5043 31.7219ZM95.333 29.6519C96.0196 29.8252 96.363 30.2552 96.363 30.9419C96.363 31.4085 96.1863 31.7685 95.833 32.0219C95.4863 32.2752 94.9663 32.4019 94.273 32.4019H91.723V27.1019H94.183C94.8096 27.1019 95.2996 27.2219 95.653 27.4619C96.0063 27.6952 96.183 28.0285 96.183 28.4619C96.183 28.7419 96.1063 28.9852 95.953 29.1919C95.8063 29.3919 95.5996 29.5452 95.333 29.6519ZM92.663 29.3819H94.103C94.4696 29.3819 94.7463 29.3152 94.933 29.1819C95.1263 29.0485 95.223 28.8552 95.223 28.6019C95.223 28.0952 94.8496 27.8419 94.103 27.8419H92.663V29.3819ZM94.203 31.6619C94.603 31.6619 94.903 31.5985 95.103 31.4719C95.303 31.3452 95.403 31.1485 95.403 30.8819C95.403 30.6085 95.3096 30.4052 95.123 30.2719C94.943 30.1385 94.6563 30.0719 94.263 30.0719H92.663V31.6619H94.203ZM99.9255 30.1619H98.8255V32.4019H97.8655V27.1019H98.8255V29.3419H99.9455L101.666 27.1019H102.696L100.686 29.6519L102.836 32.4019H101.706L99.9255 30.1619ZM103.842 27.1019H104.802V30.9619L108.052 27.1019H108.922V32.4019H107.962V28.5419L104.722 32.4019H103.842V27.1019Z" fill="white"/>
</svg>
